<svg viewBox="0 0 500 500" xmlns="http://www.w3.org/2000/svg" xmlns:xlink="http://www.w3.org/1999/xlink" width="100%" id="blobSvg">
  <defs>
    <linearGradient id="gradient" x1="0%" y1="0%" x2="0%" y2="100%">
      <stop offset="0%" style="stop-color: rgb(233, 100, 67);"></stop>
      <stop offset="100%" style="stop-color: rgb(144, 78, 149);"></stop>
    </linearGradient>
  </defs>
  <path id="blob" d="M441,294.5Q449,339,413.5,365.5Q378,392,342,406.5Q306,421,269,423.5Q232,426,193.5,420Q155,414,127,387Q99,360,69,327.5Q39,295,51.5,252.5Q64,210,69.5,166.5Q75,123,117,107.5Q159,92,194.5,75.5Q230,59,270.5,60.5Q311,62,352,77Q393,92,409.5,132Q426,172,429.5,211Q433,250,441,294.5Z" fill="url(#gradient)"></path>
</svg>